<?xml version="1.0" standalone="no"?>
<!DOCTYPE svg PUBLIC "-//W3C//DTD SVG 20010904//EN"
 "http://www.w3.org/TR/2001/REC-SVG-20010904/DTD/svg10.dtd">
<svg version="1.0" xmlns="http://www.w3.org/2000/svg"
 width="345.000000pt" height="409.000000pt" viewBox="0 0 345.000000 409.000000"
 preserveAspectRatio="xMidYMid meet">
<metadata>
Created by potrace 1.16, written by Peter Selinger 2001-2019
</metadata>
<g transform="translate(0.000000,409.000000) scale(0.100000,-0.100000)"
fill="#000000" stroke="none">
<path d="M1690 3945 l0 -135 70 0 70 0 0 135 0 135 -70 0 -70 0 0 -135z"/>
<path d="M1690 3579 l0 -111 -27 22 c-114 88 -195 121 -319 127 -107 6 -171
-6 -264 -51 -81 -38 -185 -139 -225 -217 -28 -54 -30 -56 -86 -68 -136 -28
-280 -142 -352 -279 -45 -85 -77 -203 -78 -286 l0 -61 -59 -42 c-101 -72 -196
-223 -235 -373 -56 -217 -26 -478 74 -649 30 -50 31 -56 31 -169 0 -139 17
-219 68 -322 48 -97 160 -214 249 -259 69 -34 160 -61 208 -61 27 0 36 -8 73
-64 54 -82 128 -148 217 -191 95 -47 172 -65 280 -65 149 0 279 45 388 133
l57 47 0 -125 0 -125 70 0 70 0 0 490 0 490 60 0 60 0 0 60 0 60 -60 0 -60 0
0 100 0 100 60 0 60 0 0 65 0 65 -60 0 -60 0 0 95 0 95 125 0 125 0 0 65 0 65
-125 0 -125 0 0 100 0 100 60 0 60 0 0 60 0 60 -60 0 -60 0 0 100 0 100 179 0
179 0 53 63 c29 34 80 91 114 127 33 36 77 84 96 108 34 40 38 42 65 31 49
-18 149 -13 199 11 50 24 110 87 131 136 24 57 18 162 -12 222 -95 191 -375
187 -471 -7 -24 -48 -25 -183 -1 -227 l17 -30 -70 -81 c-38 -45 -69 -84 -69
-88 0 -4 -27 -38 -61 -76 l-61 -69 -144 0 -144 0 0 455 0 455 -70 0 -70 0 0
-111z m-308 -90 c115 -24 228 -111 277 -212 27 -56 41 -132 41 -223 l0 -74
-47 0 c-92 0 -206 75 -254 165 -13 25 -28 45 -34 45 -30 0 -105 -36 -105 -50
0 -42 111 -180 180 -224 49 -32 144 -66 183 -66 18 0 42 -3 55 -6 l22 -6 0
-258 0 -259 -64 34 c-165 86 -336 41 -519 -138 -104 -101 -170 -144 -239 -153
-51 -7 -115 15 -124 43 -38 125 -129 208 -241 221 l-44 5 3 -64 c3 -63 3 -63
37 -70 72 -15 121 -79 121 -157 0 -75 -55 -145 -125 -158 l-35 -6 0 -65 0 -64
38 7 c71 12 132 46 177 97 25 27 48 60 51 73 7 26 7 26 79 14 122 -20 219 25
372 172 131 127 189 160 286 161 45 1 73 -5 103 -20 45 -24 100 -81 115 -120
5 -13 9 -191 9 -399 l0 -374 -42 0 c-95 0 -214 -50 -291 -122 -44 -40 -117
-149 -117 -173 0 -6 26 -20 58 -32 l58 -21 24 45 c32 60 119 137 176 157 26 9
68 16 92 16 l44 0 -4 -152 c-4 -125 -9 -163 -26 -208 -94 -239 -385 -347 -630
-233 -82 38 -166 123 -206 207 -42 86 -51 144 -37 221 39 209 218 355 436 355
l75 0 0 76 c0 49 6 88 16 110 20 42 94 111 140 130 33 14 34 15 34 74 0 56 -1
60 -23 60 -45 0 -144 -59 -200 -120 -53 -57 -97 -143 -97 -190 0 -15 -7 -20
-29 -20 -79 0 -238 -74 -311 -145 l-36 -35 -59 29 c-67 31 -133 97 -142 141
-5 30 -6 30 -70 30 l-65 0 7 -37 c18 -99 83 -182 186 -237 30 -16 56 -30 58
-32 1 -1 -7 -31 -20 -66 -16 -44 -24 -94 -27 -166 -3 -70 -8 -102 -16 -102
-29 0 -115 36 -163 67 -158 104 -236 291 -211 503 10 87 10 89 -16 122 -71 93
-116 252 -116 406 0 241 115 465 277 542 l53 25 -6 80 c-10 143 38 275 138
381 43 45 149 114 175 114 6 0 11 -30 11 -66 1 -75 22 -155 59 -227 13 -27 23
-50 21 -52 -2 -1 -16 -9 -33 -18 -88 -44 -175 -161 -175 -234 l0 -33 59 0 c57
0 59 1 70 32 18 52 56 93 118 125 l58 31 25 -20 c61 -49 162 -89 263 -103 l47
-6 0 64 0 64 -44 6 c-24 4 -70 16 -102 28 -82 31 -182 131 -213 213 -41 110
-38 223 10 317 46 93 157 179 264 205 65 16 93 16 157 3z m1275 -136 c70 -33
94 -119 50 -184 -27 -41 -60 -59 -107 -59 -68 0 -130 63 -130 133 0 35 40 89
80 109 44 22 63 22 107 1z"/>
<path d="M3044 3040 c-65 -20 -127 -72 -158 -132 l-29 -58 -81 0 -81 -1 -65
-96 c-36 -52 -68 -104 -72 -114 -4 -10 -32 -55 -63 -99 -56 -79 -57 -80 -101
-80 l-44 0 0 -60 0 -60 78 0 78 0 54 78 c29 42 60 84 69 93 9 9 45 59 81 112
65 96 65 96 107 97 40 0 43 -2 61 -42 56 -127 216 -188 348 -133 159 66 204
286 86 417 -20 22 -53 48 -74 59 -45 23 -149 33 -194 19z m146 -149 c14 -10
33 -34 44 -55 24 -50 15 -99 -29 -143 -29 -29 -40 -33 -84 -33 -44 0 -56 5
-86 33 -57 52 -60 129 -9 181 47 46 111 53 164 17z"/>
<path d="M3099 2325 c-61 -20 -132 -84 -155 -140 l-19 -45 -227 0 -228 0 0
-65 0 -65 228 0 228 0 13 -37 c22 -60 99 -129 166 -149 242 -70 433 194 292
403 -62 90 -190 133 -298 98z m153 -140 c28 -11 58 -69 58 -110 0 -73 -54
-125 -131 -125 -83 0 -144 80 -120 159 25 84 101 114 193 76z"/>
<path d="M2220 2075 l0 -65 60 0 60 0 0 65 0 65 -60 0 -60 0 0 -65z"/>
<path d="M2090 1755 l0 -65 60 0 60 0 0 65 0 65 -60 0 -60 0 0 -65z"/>
<path d="M2350 1755 l0 -65 48 0 49 0 56 -85 c32 -47 57 -88 57 -92 0 -4 30
-53 68 -110 l67 -103 82 0 82 0 19 -43 c70 -158 278 -204 410 -91 57 48 84
104 90 184 21 293 -390 386 -504 115 -13 -32 -18 -35 -57 -35 l-42 0 -68 103
c-37 56 -95 144 -130 194 l-62 93 -82 0 -83 0 0 -65z m856 -296 c56 -53 53
-143 -7 -194 -24 -19 -42 -25 -80 -25 -42 0 -55 5 -84 33 -57 52 -60 129 -9
181 50 49 131 51 180 5z"/>
<path d="M2090 1431 c0 -49 3 -59 19 -64 18 -4 94 -106 108 -144 4 -10 44 -75
90 -144 l84 -125 -26 -55 c-61 -131 -9 -284 120 -352 30 -16 59 -21 115 -21
65 -1 82 3 128 28 90 50 132 124 132 233 0 85 -22 134 -83 190 -61 56 -138 80
-215 66 l-54 -10 -79 118 c-43 65 -87 126 -97 136 -11 10 -47 60 -81 111 l-62
92 -49 0 -50 0 0 -59z m596 -554 c88 -80 32 -220 -88 -220 -49 0 -87 26 -112
77 -24 50 -15 99 29 143 29 29 40 33 84 33 44 0 56 -5 87 -33z"/>
<path d="M1690 135 l0 -135 70 0 70 0 0 135 0 135 -70 0 -70 0 0 -135z"/>
</g>
</svg>
